HIERARCHY
ROOT Hips
{
	OFFSET -0.001795 -0.223333 0.028219
	CHANNELS 6 Xposition Yposition Zposition Zrotation Yrotation Xrotation 
	JOINT LeftUpLeg
	{
		OFFSET 0.069520 -0.091406 -0.006815
		CHANNELS 3 Zrotation Yrotation Xrotation
		JOINT LeftLeg
		{
			OFFSET 0.034277 -0.375199 -0.004496
			CHANNELS 3 Zrotation Yrotation Xrotation
			JOINT LeftFoot
			{
				OFFSET -0.013596 -0.397961 -0.043693
				CHANNELS 3 Zrotation Yrotation Xrotation
				JOINT LeftToe
				{
					OFFSET 0.026358 -0.055791 0.119288
					CHANNELS 3 Zrotation Yrotation Xrotation
					End Site
					{
						OFFSET 0.000000 0.000000 0.000000
					}
				}
			}
		}
	}
	JOINT RightUpLeg
	{
		OFFSET -0.067670 -0.090522 -0.004320
		CHANNELS 3 Zrotation Yrotation Xrotation
		JOINT RightLeg
		{
			OFFSET -0.038290 -0.382569 -0.008850
			CHANNELS 3 Zrotation Yrotation Xrotation
			JOINT RightFoot
			{
				OFFSET 0.015774 -0.398415 -0.042312
				CHANNELS 3 Zrotation Yrotation Xrotation
				JOINT RightToe
				{
					OFFSET -0.025372 -0.048144 0.123348
					CHANNELS 3 Zrotation Yrotation Xrotation
					End Site
					{
						OFFSET 0.000000 0.000000 0.000000
					}
				}
			}
		}
	}
	JOINT Spine
	{
		OFFSET -0.002533 0.108963 -0.026696
		CHANNELS 3 Zrotation Yrotation Xrotation
		JOINT Spine1
		{
			OFFSET 0.005487 0.135180 0.001092
			CHANNELS 3 Zrotation Yrotation Xrotation
			JOINT Spine2
			{
				OFFSET 0.001457 0.052922 0.025425
				CHANNELS 3 Zrotation Yrotation Xrotation
				JOINT Neck
				{
					OFFSET -0.002778 0.213870 -0.042857
					CHANNELS 3 Zrotation Yrotation Xrotation
					JOINT Head
					{
						OFFSET 0.005152 0.064970 0.051349
						CHANNELS 3 Zrotation Yrotation Xrotation
						End Site
						{
							OFFSET 0.000000 0.000000 0.000000
						}
					}
				}
				JOINT LeftShoulder
				{
					OFFSET 0.078845 0.121749 -0.034090
					CHANNELS 3 Zrotation Yrotation Xrotation
					JOINT LeftArm
					{
						OFFSET 0.090977 0.030469 -0.008868
						CHANNELS 3 Zrotation Yrotation Xrotation
						JOINT LeftForeArm
						{
							OFFSET 0.259612 -0.012772 -0.027456
							CHANNELS 3 Zrotation Yrotation Xrotation
							JOINT LeftHand
							{
								OFFSET 0.249234 0.008986 -0.001171
								CHANNELS 3 Zrotation Yrotation Xrotation
								End Site
								{
									OFFSET 0.000000 0.000000 0.000000
								}
							}
						}
					}
				}
				JOINT RightShoulder
				{
					OFFSET -0.081759 0.118833 -0.038615
					CHANNELS 3 Zrotation Yrotation Xrotation
					JOINT RightArm
					{
						OFFSET -0.096012 0.032551 -0.009143
						CHANNELS 3 Zrotation Yrotation Xrotation
						JOINT RightForeArm
						{
							OFFSET -0.253742 -0.013329 -0.021401
							CHANNELS 3 Zrotation Yrotation Xrotation
							JOINT RightHand
							{
								OFFSET -0.255298 0.007772 -0.005559
								CHANNELS 3 Zrotation Yrotation Xrotation
								End Site
								{
									OFFSET 0.000000 0.000000 0.000000
								}
							}
						}
					}
				}
			}
		}
	}
}
MOTION
Frames: 6
Frame Time: 0.050000
-0.003941 0.927531 0.109657 -2.622479 10.691868 0.241302 5.598845 0.008652 14.956488 -0.931815 -0.420704 12.199234 2.226193 3.640283 -1.648612 0.000000 0.000000 0.000000 -3.804849 1.203171 -32.215707 9.734214 -3.785238 29.258803 -6.264749 -15.410511 11.517544 0.000000 0.000000 0.000000 2.848856 -0.780215 9.952041 6.667814 -0.792855 -24.876134 -4.062124 -9.562976 28.793202 -1.859412 1.997660 -24.461502 0.000000 0.000000 0.000000 -27.710542 5.822335 -4.509321 -46.544186 -5.841153 -5.993686 -21.608885 -35.366421 9.369092 0.000000 0.000000 0.000000 21.573159 0.606611 -1.641871 51.902569 -0.093775 -7.401281 6.499395 25.197044 2.357339 0.000000 0.000000 0.000000 
-0.006429 0.941459 0.159455 -2.884812 9.490312 0.085526 7.245502 -0.183276 9.244980 -3.593348 -0.419687 25.351870 1.328528 5.057897 5.121279 0.000000 0.000000 0.000000 -2.599120 1.599024 -29.006775 10.297973 -3.901501 29.218958 -6.056495 -15.108864 8.075396 0.000000 0.000000 0.000000 3.594501 -0.882787 10.324879 7.625030 -1.067141 -24.723429 -4.104341 -7.719106 27.502639 -3.216422 3.012672 -23.253995 0.000000 0.000000 0.000000 -29.285059 6.258225 -5.489732 -45.394821 -3.140936 -6.560917 -21.687028 -33.955478 8.798240 0.000000 0.000000 0.000000 20.137816 1.990819 -0.444947 51.856938 0.970698 -6.910208 7.700261 25.795849 2.703959 0.000000 0.000000 0.000000 
-0.008560 0.953464 0.201426 -2.639018 8.906687 -1.144044 8.531413 -0.290677 -0.085831 -8.554473 0.848604 43.724836 4.748236 12.215942 9.483835 0.000000 0.000000 0.000000 -0.463959 1.859104 -23.158203 8.022358 -2.684138 26.456655 -6.577352 -16.213757 6.188112 0.000000 0.000000 0.000000 3.338030 -1.067422 12.887547 7.071581 -0.911333 -25.214590 -2.418343 -6.234418 27.372299 -2.252958 2.575110 -22.156378 0.000000 0.000000 0.000000 -30.547152 5.690336 -5.701728 -44.216814 -1.427243 -6.888367 -22.143493 -32.695818 8.459764 0.000000 0.000000 0.000000 19.424014 2.861821 0.397916 50.235979 2.959203 -6.021933 8.878416 28.313932 3.342092 0.000000 0.000000 0.000000 
-0.009606 0.965374 0.238156 -1.969673 7.763153 -1.649973 8.587212 -0.439505 -10.202134 -13.401877 4.002340 57.194452 7.602700 16.612198 8.228701 0.000000 0.000000 0.000000 0.814189 1.726548 -17.694071 6.153081 -1.621421 22.304855 -6.584802 -16.367620 4.899071 0.000000 0.000000 0.000000 2.281320 -1.071222 14.803298 7.151829 -0.951942 -25.173841 -1.233568 -2.776194 27.229484 -1.571136 2.644730 -22.742461 0.000000 0.000000 0.000000 -31.090317 4.576611 -6.146635 -43.483199 -0.497864 -6.748344 -21.748708 -31.231314 7.668123 0.000000 0.000000 0.000000 19.942189 3.481748 1.459489 48.695550 5.475318 -5.081745 8.329411 31.462121 3.806168 0.000000 0.000000 0.000000 
-0.009514 0.977697 0.273937 -1.289803 6.258936 -1.413306 8.111933 -0.811670 -20.481765 -17.603890 8.089466 62.730475 10.986592 22.165059 4.974570 0.000000 0.000000 0.000000 1.017700 1.347532 -12.964478 5.077959 -1.000910 18.306076 -6.024646 -15.262327 4.146749 0.000000 0.000000 0.000000 1.207645 -0.991162 16.164553 6.633900 -0.838709 -25.275189 0.315581 0.534863 27.328769 -0.871876 2.658613 -23.415361 0.000000 0.000000 0.000000 -30.921077 3.806797 -6.564002 -43.380666 0.278811 -6.716301 -21.536854 -30.563104 7.228912 0.000000 0.000000 0.000000 19.432948 4.734826 2.768577 47.538044 7.711990 -4.314859 8.754243 33.956434 4.438301 0.000000 0.000000 0.000000 
-0.008034 0.988266 0.310972 -0.399099 5.506997 -1.222785 8.222619 -1.197075 -29.930561 -19.604009 9.877145 61.334055 12.069648 24.026493 5.647178 0.000000 0.000000 0.000000 0.499399 0.790075 -7.682623 4.101019 -0.597033 14.158776 -5.052789 -13.083287 3.049307 0.000000 0.000000 0.000000 -0.133577 -0.809430 16.828633 6.151685 -0.780392 -24.556054 1.201533 3.228218 27.063589 -1.038493 3.161363 -24.034187 0.000000 0.000000 0.000000 -30.451553 3.418242 -7.147839 -43.646538 0.716166 -6.593202 -21.884138 -29.745471 6.920328 0.000000 0.000000 0.000000 18.033122 4.842745 3.250680 48.108305 10.207432 -3.382863 7.901554 36.373886 4.752207 0.000000 0.000000 0.000000 
